# xmcd CD database file
#
# Track frame offsets:
#	150
#	19202
#	40252
#	62725
#	83085
#	102730
#	128927
#	149160
#	168517
#	174510
#	185842
#	207522
#
# Disc length: 2981 seconds
#
# Revision: 6
# Processed by: cddbd v1.5PL3 Copyright (c) Steve Scherf et al.
# Submitted via: CDex 1.50beta8
#
DISCID=ba0ba30c
DTITLE=伊藤真澄 - 花の音
DYEAR=2001
DGENRE=Japanese Pop
TTITLE0=まあるい空
TTITLE1=今日の花
TTITLE2=MELODY
TTITLE3=空曜日
TTITLE4=One Drop
TTITLE5=サザナミの唄
TTITLE6=往復書簡 〜Greetings〜
TTITLE7=家路
TTITLE8=Voice from tree
TTITLE9=Water color
TTITLE10=夢みる力
TTITLE11=眠りの王国
EXTD=YEAR: 2001
EXTT0=
EXTT1=
EXTT2=
EXTT3=
EXTT4=
EXTT5=
EXTT6=
EXTT7=
EXTT8=
EXTT9=
EXTT10=
EXTT11=
PLAYORDER=
